<svg xmlns="http://www.w3.org/2000/svg" viewBox="0 0 900 540" role="img" aria-label="Ilustrim i pjesës ballore të trurit">
  <defs>
    <linearGradient id="bg" x1="0" x2="1" y1="0" y2="1">
      <stop offset="0" stop-color="#152238"/><stop offset="1" stop-color="#351b25"/>
    </linearGradient>
  </defs>
  <rect width="900" height="540" fill="url(#bg)"/>
  <path d="M292 291c-34-118 36-220 151-230c80-7 148 31 180 91c64 5 108 52 108 119c0 73-55 126-128 128c-34 57-102 86-176 75c-101-14-167-78-135-183z" fill="#e66a8a" opacity=".72"/>
  <path d="M333 266c-8-56 25-107 86-126c44-14 82-8 118 14" fill="none" stroke="#ffd7e5" stroke-width="10" opacity=".72"/>
  <path d="M509 130c-50 52-69 111-54 179c11 49 43 91 90 128" fill="none" stroke="#ffd7e5" stroke-width="10" opacity=".72"/>
  <path d="M286 278c46-58 108-83 186-74" fill="none" stroke="#37d67a" stroke-width="16" stroke-linecap="round"/>
  <circle cx="300" cy="275" r="58" fill="#37d67a" opacity=".22"/>
  <path d="M199 391h502" stroke="#3fb8ff" stroke-width="8" opacity=".25" stroke-linecap="round"/>
</svg>
