<svg xmlns="http://www.w3.org/2000/svg" viewBox="0 0 900 520" role="img" aria-labelledby="title desc">
  <title id="title">Zgjerimi i universit</title>
  <desc id="desc">Galaktika qe largohen nga nje pike qendrore, duke treguar zgjerimin kozmik.</desc>
  <rect width="900" height="520" fill="#08111f"/>
  <g stroke="#2f9cff" stroke-width="4" stroke-linecap="round" opacity=".65">
    <path d="M450 260 L185 130"/>
    <path d="M450 260 L720 110"/>
    <path d="M450 260 L160 400"/>
    <path d="M450 260 L745 390"/>
    <path d="M450 260 L450 70"/>
    <path d="M450 260 L450 455"/>
  </g>
  <g fill="#e8eef8">
    <circle cx="450" cy="260" r="18"/>
    <circle cx="185" cy="130" r="10"/>
    <circle cx="720" cy="110" r="12"/>
    <circle cx="160" cy="400" r="9"/>
    <circle cx="745" cy="390" r="11"/>
    <circle cx="450" cy="70" r="8"/>
    <circle cx="450" cy="455" r="10"/>
  </g>
  <g fill="none" stroke="#19d6b3" stroke-width="7" stroke-linecap="round">
    <path d="M205 130 h-46 m34-18-34 18 34 18"/>
    <path d="M700 110 h54 m-34-18 34 18-34 18"/>
    <path d="M178 392 l-42 28 m13-34-13 34 38-2"/>
    <path d="M726 382 l44 26 m-39-1 39 1-16-35"/>
  </g>
  <g opacity=".45" fill="#fff">
    <circle cx="88" cy="82" r="2"/><circle cx="290" cy="62" r="2"/><circle cx="822" cy="190" r="2"/>
    <circle cx="80" cy="318" r="2"/><circle cx="610" cy="64" r="2"/><circle cx="815" cy="455" r="2"/>
  </g>
</svg>
