<svg xmlns="http://www.w3.org/2000/svg" viewBox="0 0 900 540" role="img" aria-label="Ilustrim i çarjeve të tokës">
  <defs>
    <linearGradient id="bg" x1="0" x2="1" y1="0" y2="1">
      <stop offset="0" stop-color="#2d2418"/><stop offset="1" stop-color="#49321d"/>
    </linearGradient>
  </defs>
  <rect width="900" height="540" fill="url(#bg)"/>
  <path d="M0 155c142-48 270-42 412-8s270 28 488-32v425H0z" fill="#b88953"/>
  <g fill="none" stroke="#3f2815" stroke-width="10" stroke-linecap="round" stroke-linejoin="round" opacity=".82">
    <path d="M450 158l-45 78l48 60l-82 70l25 94"/>
    <path d="M405 236l-120-38l-78 34l-117-22"/>
    <path d="M453 296l122-40l98 35l132-51"/>
    <path d="M371 366l-98 38l-60 86"/>
    <path d="M396 460l116-50l150 39l107-72"/>
    <path d="M575 256l26-96l92-42"/>
    <path d="M285 198l-42-88l-89-39"/>
  </g>
  <path d="M0 142c156-54 275-39 420-8s275 30 480-34" fill="none" stroke="#f2b84b" stroke-width="7" opacity=".32"/>
</svg>
