<svg xmlns="http://www.w3.org/2000/svg" viewBox="0 0 900 540" role="img" aria-label="Ilustrim abstrakt i fazës mudghah">
  <defs>
    <linearGradient id="bg" x1="0" x2="1" y1="0" y2="1">
      <stop offset="0" stop-color="#271628"/><stop offset="1" stop-color="#101b2c"/>
    </linearGradient>
    <linearGradient id="body" x1="0" x2="1">
      <stop offset="0" stop-color="#f6b3c8"/><stop offset="1" stop-color="#c43f68"/>
    </linearGradient>
  </defs>
  <rect width="900" height="540" fill="url(#bg)"/>
  <path d="M257 278c-8-87 54-154 147-162c111-10 237 53 259 152c21 96-72 163-181 154c-112-10-216-43-225-144z" fill="url(#body)"/>
  <g fill="#7b2442" opacity=".55">
    <ellipse cx="356" cy="210" rx="30" ry="18"/><ellipse cx="421" cy="189" rx="32" ry="19"/>
    <ellipse cx="492" cy="196" rx="35" ry="19"/><ellipse cx="559" cy="225" rx="36" ry="20"/>
    <ellipse cx="597" cy="285" rx="32" ry="18"/><ellipse cx="546" cy="343" rx="36" ry="20"/>
    <ellipse cx="462" cy="360" rx="33" ry="18"/><ellipse cx="378" cy="336" rx="32" ry="17"/>
    <ellipse cx="328" cy="278" rx="31" ry="18"/>
  </g>
  <path d="M248 300c146-46 254-50 405 4" fill="none" stroke="#ffd7e5" stroke-width="10" opacity=".4"/>
  <circle cx="210" cy="135" r="86" fill="#3fb8ff" opacity=".08"/>
  <circle cx="710" cy="420" r="118" fill="#37d67a" opacity=".08"/>
</svg>
